<svg xmlns="http://www.w3.org/2000/svg" xmlns:xlink="http://www.w3.org/1999/xlink" viewBox="0 0 96.083 109.083" fill="#fff" fill-rule="evenodd" stroke="#000" stroke-linecap="round" stroke-linejoin="round"><use xlink:href="#A" x="1.042" y="1.042"/><symbol id="A" overflow="visible"><g stroke="none" fill-rule="nonzero"><path d="M.26 104.705S-3.906 76.58 21.094 76.58c6.65 4.433 12.346 7.496 18.75 7.483h-.261c6.404.013 11.475-4.508 18.125-8.942C90.146 75.122 80 104.705 80 104.705"/><path d="M60.438 74.136c-6.604 4.402-6.406 7.708-14.869 8.938 27.215.854 27.215 11.271 28.802 19.604h10.652s.417-28.542-24.583-28.542z" fill="#d0cfce"/><path d="M87.8 72.147h-2.458v13.496l8.054 18.417s.642 2.875-1.652 2.875l-21.635.025c-2.292 0-1.652-2.875-1.652-2.875l8.038-18.396V72.147h-2.26"/><path d="M84.928 85.644l8.054 18.417s.642 2.875-1.652 2.875l-21.635.025c-2.292 0-1.652-2.875-1.652-2.875l8.054-18.396" fill="#b1cc33"/><path d="M13.584 34.657s26.465-14.631 54.688 1.671l-8.09 12.552s-13.979 1.942-19.254-3.333c-5.396 5.396-17.708 3.333-17.708 3.333l-9.654-14.225z" fill="#92d3f5"/><path d="M74.727 34.765c-1.562-12.488-5.798-22.188-10.715-26.517-6.094-5.362-13.458-1.071-13.458-1.071S39.431-6.328 23.671 3.713 6.233 34.763 6.233 34.763s-1.512 16.819.656 34.41c.431 3.5 1.329 6.938 2.754 10.152 2.892-1.692 6.625-2.75 11.45-2.75 6.596 4.396 12.256 7.438 18.596 7.475 6.354-.038 11.406-4.525 18.021-8.933 5.715 0 10.083.931 13.446 2.444 1.25-2.167 2.275-4.479 3.012-6.923.673-2.223.923-4.55.948-6.871.073-6.758.365-22.992-.388-29.006zM60.181 48.88s-13.979 1.942-19.254-3.333c-5.396 5.396-17.708 3.333-17.708 3.333l-9.656-14.225s26.465-14.631 54.688 1.671L60.181 48.88z" fill="#e27022"/><path d="M64.879 34.505L47.177 20.561a71.62 71.62 0 0 1-14.742 8.5c9.042-1.125 20.492-.479 32.444 5.442zM60.181 48.88s-13.958 1.942-19.254-3.333c-5.417 5.417-17.708 3.333-17.708 3.333l-5.146-7.579c.383 15.89 10.781 28.631 23.583 28.631 12.917 0 23.333-12.917 23.6-28.963l-5.075 7.91z" fill="#fcea2b"/></g><path d="M34.881 96.572v3.687" fill="none" stroke-width="4.167" stroke-miterlimit="10"/><path d="M53.352 38.616a4.17 4.17 0 0 1-4.167 4.167 4.17 4.17 0 0 1-4.167-4.167 4.17 4.17 0 0 1 4.167-4.167 4.17 4.17 0 0 1 4.167 4.167m-16.667 0a4.17 4.17 0 0 1-4.167 4.167 4.17 4.17 0 0 1-4.167-4.167 4.17 4.17 0 0 1 4.167-4.167 4.17 4.17 0 0 1 4.167 4.167m4.167 20.838c-2.4 0-4.8-.596-7.181-1.787-1.029-.515-1.446-1.767-.931-2.796s1.767-1.446 2.796-.931c3.579 1.792 7.058 1.792 10.635 0 1.029-.515 2.281-.098 2.796.931s.098 2.281-.931 2.796c-2.383 1.192-4.781 1.787-7.181 1.787z" stroke="none" fill="#000" fill-rule="nonzero"/><g fill="none" stroke-width="4.167"><path d="M64.354 44.428c-1.194 14.91-11.263 26.55-23.506 26.55-13.046 0-23.625-13.221-23.625-29.527v-2.612M1.139 102.89s-4.167-27.083 20.833-27.083c6.65 4.433 12.346 7.5 18.75 7.483h-.261c6.404.013 12.1-3.05 18.75-7.483 3.91 0 7.108.663 9.721 1.781m18.598-5.625h-2.458v13.496l8.054 18.412s.642 2.875-1.652 2.875l-21.635.025c-2.292 0-1.652-2.875-1.652-2.875l8.054-18.396V71.959h-2.26"/><path d="M76.271 71.943H85.1M33.327 28.849c8.917-3.423 13.85-8.271 13.85-8.271s7.983 8.194 16.313 12.677M9.231 71.224C6.348 52.761 8.408 33.62 8.408 33.62S9.983 13.328 24.742 3.624 49.923 6.97 49.923 6.97s6.875-4.167 12.604 1.036c4.583 4.181 8.571 13.552 10.037 25.617.902 7.417 1.163 20.217.521 30.937m-52.137 11.25S31.01 90.601 43.99 91.851v11.042m-9.108-3.729v3.688"/><path d="M14.248 34.449s26.465-14.631 54.687 1.671l-8.087 12.552s-13.979 1.942-19.254-3.333c-5.396 5.396-17.708 3.333-17.708 3.333l-9.654-14.225z"/></g></symbol></svg>