<svg xmlns="http://www.w3.org/2000/svg" xmlns:xlink="http://www.w3.org/1999/xlink" viewBox="0 0 125.167 62.125" fill="#fff" fill-rule="evenodd" stroke="#000" stroke-linecap="round" stroke-linejoin="round"><use xlink:href="#A" x="2.083" y="2.083"/><symbol id="A" overflow="visible"><g stroke="none" fill-rule="nonzero"><path d="M120.833 2.089v43.917c0 1.146-.937 4.079-2.083 4.079h-13.896c0-5.75-2.583-12.413-8.333-12.413s-8.333 6.663-8.333 12.413h-35.75V.006h66.313c1.146 0 2.083.917 2.083 2.083z"/><path d="M52.438.006v50.167l-24.858-.038c-.25-5.521-4.496-12.462-10.079-12.462-5.417 0-9.917 6.25-10.354 11.604L0 49.131V37.319v-.708a6.28 6.28 0 0 1 .042-.646c.104-1.292.375-2.292.708-3.083.174-.441.398-.86.667-1.25l.333-.417c.083-.125.208-.208.292-.312.063-.042.104-.104.146-.146s.083-.062.125-.104c.063-.062.104-.062.104-.062l9.375-6.521 5.667-5.937 1.771-1.75 3.375-3.125 3.125-2.708c3.021-2.5 5.708-4.417 8.021-5.833l2.208-1.313 1.958-1.042 1.708-.792 1.104-.458.5-.208c2.083-.771 3.167-.833 3.167-.833h8z"/><path d="M90.271 48.09c0-3.462 2.787-6.25 6.25-6.25s6.25 2.788 6.25 6.25-2.787 6.25-6.25 6.25-6.25-2.788-6.25-6.25zm-66.521-.001c0 3.458-2.792 6.25-6.25 6.25s-6.25-2.792-6.25-6.25a5.34 5.34 0 0 1 .063-.812c.375-3.062 3-5.417 6.188-5.417a6.22 6.22 0 0 1 6.208 5.688c.035.185.049.374.042.563z" fill="#d0cfce"/></g><g stroke="#ea5a47" fill="none" stroke-width="4.167"><path d="M104.86 11.631v15.452"/><path d="M112.587 19.356H97.135"/></g><path d="M41.548 11.369l-.317 11.158c0 .333-4.375 2.813-4.708 2.833l-13.292-.004c-1.917.125-2.958-2.167-1.608-3.531l9.798-10.479c.391-.393.923-.614 1.477-.615h8.021a.63.63 0 0 1 .631.631z" fill="#92d3f5" stroke="none" fill-rule="nonzero"/><path d="M113.542 48.09h5.208c1.151 0 2.083-.933 2.083-2.083V2.083c0-1.151-.933-2.083-2.083-2.083H44.444s-11.631.869-32.64 24.046l-9.375 6.51S0 32.075 0 37.325v9.723h1.91m30.902 1.042h47.569" fill="none" stroke-width="4.167" stroke-miterlimit="10"/><path d="M96.521 37.673c-5.75 0-10.417 4.667-10.417 10.417s4.667 10.417 10.417 10.417 10.417-4.667 10.417-10.417-4.667-10.417-10.417-10.417zm0 16.667c-3.458 0-6.25-2.792-6.25-6.25s2.792-6.25 6.25-6.25 6.25 2.792 6.25 6.25-2.792 6.25-6.25 6.25zm-68.604-6.729A10.42 10.42 0 0 0 17.5 37.673a10.4 10.4 0 0 0-10.354 9.521 6.25 6.25 0 0 0-.062.896c0 5.75 4.667 10.417 10.417 10.417S27.916 53.84 27.916 48.09v-.479zM17.5 54.34c-3.458 0-6.25-2.792-6.25-6.25a5.31 5.31 0 0 1 .063-.812c.375-3.062 3-5.417 6.188-5.417a6.22 6.22 0 0 1 6.208 5.688 2.57 2.57 0 0 1 .042.563c0 3.458-2.792 6.25-6.25 6.25z" stroke="none" fill="#000" fill-rule="nonzero"/><path d="M41.146 12.846v4.471a6.25 6.25 0 0 1-6.25 6.25H22.917M52.432 0v48.09" fill="none" stroke-width="4.167" stroke-miterlimit="10"/></symbol></svg>