<svg xmlns="http://www.w3.org/2000/svg" xmlns:xlink="http://www.w3.org/1999/xlink" viewBox="0 0 106.083 105.083" fill="#fff" fill-rule="evenodd" stroke="#000" stroke-linecap="round" stroke-linejoin="round"><use xlink:href="#A" x="1.042" y="1.042"/><symbol id="A" overflow="visible"><g stroke="none"><g fill="#ea5a47" fill-rule="nonzero"><path d="M53.534 17.765c-.348.72-1.076 1.177-1.876 1.177s-1.528-.457-1.876-1.177C45.82 9.431 37.403 4.134 28.175 4.165 14.924 4.182 4.185 14.92 4.165 28.171c0 5.146 1.608 10.058 4.61 14.152l42.881 54.983 42.629-54.646 1.375-2.029c2.279-3.742 3.479-8.052 3.479-12.458C99.119 14.925 88.384 4.19 75.136 4.169c-9.228-.032-17.644 5.266-21.606 13.6z"/><path d="M75.14 4.167c13.248.021 23.983 10.756 24.004 24.004a23.96 23.96 0 0 1-3.479 12.458l-1.375 2.029-42.629 54.646-3.265-4.187C95.038 29.376 75.142 4.159 75.142 4.159z"/></g><path d="M50.015 101.975L5.456 44.838A27.98 27.98 0 0 1 0 28.171C0 12.636 12.64 0 28.177 0c9.464-.039 18.303 4.72 23.481 12.642C56.837 4.72 65.677-.039 75.142 0c15.549.022 28.148 12.622 28.169 28.171 0 5.192-1.434 10.284-4.144 14.713l-1.513 2.229-44.375 56.865c-.395.506-1.001.802-1.643.802s-1.248-.296-1.643-.802zm3.521-84.208c-.348.72-1.077 1.177-1.876 1.177s-1.528-.457-1.876-1.177c-3.962-8.334-12.379-13.632-21.606-13.6-13.252.016-23.992 10.752-24.012 24.004 0 5.146 1.608 10.058 4.61 14.152l42.881 54.983 42.629-54.646 1.375-2.029c2.279-3.742 3.479-8.052 3.479-12.458C99.119 14.925 88.384 4.19 75.136 4.169c-9.228-.032-17.644 5.266-21.606 13.6z" fill="#000" fill-rule="nonzero"/></g></symbol></svg>