<svg xmlns="http://www.w3.org/2000/svg" xmlns:xlink="http://www.w3.org/1999/xlink" viewBox="0 0 104.083 107.125" fill="#fff" fill-rule="evenodd" stroke="#000" stroke-linecap="round" stroke-linejoin="round"><use xlink:href="#A" x="1.042" y="2.083"/><symbol id="A" overflow="visible"><path d="M52.96.199l-6.087 1.344-31.596 36.09L0 64.841l4.167 23.487 26.954 14.729 20.052-.083 29.254.433 4.99-3.271 1.563-7.985-1.562-3.3 7.467-.173 2.777-3.473 1.735-4.86-3.298-6.25 3.298-1.39 3.994-5.554-1.91-5.729-5.208-2.431 2.431-4.515.348-7.117-5.383-3.125-27.429-1.042-1.737-1.389-1.779-1.244H41.71l.131-3.617L50 16.976l3.473-9.548z" fill="#fcea2b" stroke="none" fill-rule="nonzero"/><g fill="none" stroke-width="4.167"><path d="M49.102 100.966h-18.75c-17.333 0-29.167-13.917-29.167-31.25a40.87 40.87 0 0 1 10.417-27.083m36.229 0h-9.167l14.583-37.5C54.914.791 47.414-2.784 42.83 3.05L11.58 42.633m42.13 7.291a7.89 7.89 0 0 0 8.333 7.292h27.083a7.36 7.36 0 0 0 8.264-6.319 7.36 7.36 0 0 0-6.319-8.265c-.646-.083-1.3-.083-1.946 0H62.043a7.89 7.89 0 0 0-8.333 7.292zm1.785 44.452a7.89 7.89 0 0 0 8.333 7.292h14.583a7.36 7.36 0 0 0 8.265-6.319 7.36 7.36 0 0 0-6.319-8.265c-.646-.083-1.3-.083-1.946 0H63.829a7.89 7.89 0 0 0-8.333 7.292zM44.933 65.21a7.89 7.89 0 0 0 8.333 7.292H92.85a7.36 7.36 0 0 0 8.265-6.319 7.36 7.36 0 0 0-6.319-8.265c-.646-.083-1.3-.083-1.946 0H53.266a7.89 7.89 0 0 0-8.333 7.292z"/><path d="M49.102 79.793a7.89 7.89 0 0 0 8.333 7.292h31.25a7.36 7.36 0 0 0 8.265-6.319 7.36 7.36 0 0 0-6.319-8.265c-.625-.083-1.3-.083-1.946 0h-31.25a7.89 7.89 0 0 0-8.333 7.292z"/><path d="M5.144 52.347c-2.45 5.104-3.802 10.667-3.971 16.333 0 17.833 9.635 32.292 31.51 32.292" stroke-miterlimit="10" stroke-linejoin="miter" stroke-linecap="butt"/></g></symbol></svg>